<svg width="25" height="8" viewBox="0 0 25 8" fill="none" xmlns="http://www.w3.org/2000/svg">
<path d="M1.4541 3.33667C1.17796 3.33667 0.954102 3.56053 0.954102 3.83667C0.954102 4.11281 1.17796 4.33667 1.4541 4.33667V3.33667ZM24.5911 4.19022C24.7864 3.99496 24.7864 3.67838 24.5911 3.48312L21.4091 0.301136C21.2139 0.105874 20.8973 0.105874 20.702 0.301136C20.5068 0.496398 20.5068 0.812981 20.702 1.00824L23.5304 3.83667L20.702 6.6651C20.5068 6.86036 20.5068 7.17694 20.702 7.3722C20.8973 7.56747 21.2139 7.56747 21.4091 7.3722L24.5911 4.19022ZM1.4541 4.33667H24.2375V3.33667H1.4541V4.33667Z" fill="#6C6C6C"/>
</svg>
