<svg width="19" height="18" viewBox="0 0 19 18" fill="none" xmlns="http://www.w3.org/2000/svg">
<path d="M2.21289 18C1.66289 18 1.19206 17.8042 0.800391 17.4125C0.408724 17.0208 0.212891 16.55 0.212891 16V2C0.212891 1.45 0.408724 0.979167 0.800391 0.5875C1.19206 0.195833 1.66289 0 2.21289 0H9.21289V2H2.21289V16H16.2129V9H18.2129V16C18.2129 16.55 18.0171 17.0208 17.6254 17.4125C17.2337 17.8042 16.7629 18 16.2129 18H2.21289ZM6.91289 12.7L5.51289 11.3L14.8129 2H11.2129V0H18.2129V7H16.2129V3.4L6.91289 12.7Z" fill="#2E75FF"/>
</svg>
