<svg width="123" height="51" viewBox="0 0 123 51" fill="none" xmlns="http://www.w3.org/2000/svg">
<path d="M43.4356 23.2715C41.6473 23.2715 40.132 22.9533 38.8914 22.3168C37.6491 21.6803 36.5813 20.8435 35.688 19.8097L38.3405 17.2427C39.0561 18.0698 39.8558 18.7015 40.7394 19.136C41.6231 19.5706 42.602 19.787 43.6746 19.787C44.8862 19.787 45.8005 19.5253 46.416 19.0036C47.0315 18.4818 47.34 17.7758 47.34 16.889C47.34 16.1992 47.1413 15.637 46.7439 15.2041C46.3466 14.7711 45.6018 14.4561 44.5082 14.2574L42.5422 13.9618C38.3906 13.306 36.3148 11.2867 36.3148 7.9056C36.3148 6.97027 36.4892 6.1254 36.8366 5.36938C37.1839 4.61336 37.6863 3.96719 38.3421 3.42926C38.998 2.89132 39.7879 2.47939 40.712 2.19023C41.636 1.90268 42.6828 1.75729 43.8556 1.75729C45.4242 1.75729 46.7956 2.01576 47.9684 2.53431C49.1396 3.05286 50.1444 3.81857 50.978 4.83306L48.2964 7.37089C47.7794 6.74088 47.1543 6.22879 46.4193 5.83462C45.6842 5.44046 44.7602 5.24338 43.6472 5.24338C42.5342 5.24338 41.6651 5.455 41.0997 5.87824C40.5343 6.30148 40.2499 6.89757 40.2499 7.6649C40.2499 8.43223 40.4777 9.03316 40.9349 9.40794C41.392 9.78272 42.1271 10.0573 43.1399 10.235L45.0768 10.5937C47.1817 10.9717 48.7374 11.6421 49.7406 12.6081C50.7437 13.5725 51.2461 14.9198 51.2461 16.6499C51.2461 17.645 51.0717 18.5448 50.7244 19.3493C50.377 20.1554 49.8698 20.8516 49.2042 21.438C48.5387 22.0244 47.7245 22.4767 46.7601 22.795C45.7957 23.1132 44.6891 23.2731 43.4372 23.2731L43.4356 23.2715Z" fill="black"/>
<path d="M59.6754 22.9145C58.3637 22.9145 57.3654 22.5721 56.6804 21.8887C55.9955 21.2054 55.653 20.2281 55.653 18.96V10.4273H53.3591V7.35799H54.5513C55.128 7.35799 55.5206 7.22391 55.729 6.95575C55.9373 6.68759 56.0424 6.28534 56.0424 5.74902V3.0965H59.4687V7.35799H62.6575V10.4273H59.4687V19.8436H62.4184V22.9129H59.6771L59.6754 22.9145Z" fill="black"/>
<path d="M75.2608 20.3218H75.1122C74.9733 20.7191 74.7891 21.0923 74.5614 21.4396C74.332 21.7869 74.0444 22.1003 73.6971 22.3782C73.3498 22.656 72.9314 22.8757 72.4452 23.034C71.9589 23.1924 71.3967 23.2731 70.7619 23.2731C69.1529 23.2731 67.9204 22.7465 67.0674 21.6932C66.2129 20.64 65.7864 19.1409 65.7864 17.1943V7.35959H69.6004V16.8066C69.6004 17.8792 69.8088 18.6982 70.2256 19.2653C70.6423 19.8323 71.3079 20.115 72.2222 20.115C72.5986 20.115 72.9718 20.0649 73.3401 19.9664C73.7068 19.8678 74.0299 19.7127 74.3094 19.5043C74.5872 19.296 74.8166 19.0375 74.9943 18.7289C75.1736 18.4204 75.2625 18.0585 75.2625 17.6418V7.3612H79.0765V22.9161H75.2625V20.3234L75.2608 20.3218Z" fill="black"/>
<path d="M93.1405 20.3218H92.9919C92.714 21.2151 92.1874 21.9307 91.412 22.467C90.6366 23.0034 89.7336 23.2715 88.6997 23.2715C86.7337 23.2715 85.2281 22.5672 84.1846 21.1553C83.141 19.7451 82.6208 17.729 82.6208 15.1056C82.6208 12.4821 83.1426 10.5016 84.1846 9.10103C85.2281 7.70046 86.7321 6.99936 88.6997 6.99936C89.7319 6.99936 90.6366 7.26268 91.412 7.7893C92.1874 8.31593 92.7124 9.02672 92.9919 9.92005H93.1405V0.862366H96.9545V22.9145H93.1405V20.3218ZM89.9226 20.1118C90.8369 20.1118 91.601 19.8937 92.2165 19.4559C92.8319 19.0197 93.1405 18.3929 93.1405 17.5788V12.6323C93.1405 11.8779 92.8319 11.2722 92.2165 10.815C91.601 10.3578 90.8353 10.1301 89.9226 10.1301C88.9291 10.1301 88.1294 10.4628 87.5237 11.1284C86.9179 11.7939 86.6142 12.6824 86.6142 13.7954V16.4771C86.6142 17.5901 86.9163 18.4737 87.5237 19.1296C88.1294 19.7854 88.9291 20.1134 89.9226 20.1134V20.1118Z" fill="black"/>
<path d="M103.272 5.09315C102.478 5.09315 101.906 4.91384 101.558 4.55683C101.211 4.19982 101.037 3.74266 101.037 3.18533V2.58924C101.037 2.03354 101.209 1.57637 101.558 1.21775C101.906 0.860739 102.478 0.681427 103.272 0.681427C104.067 0.681427 104.613 0.860739 104.97 1.21775C105.327 1.57476 105.506 2.03192 105.506 2.58924V3.18533C105.506 3.74104 105.327 4.19821 104.97 4.55683C104.613 4.91384 104.046 5.09315 103.272 5.09315ZM101.365 7.35798H105.179V22.9129H101.365V7.35798Z" fill="black"/>
<path d="M115.758 23.2715C114.645 23.2715 113.647 23.0825 112.763 22.7061C111.879 22.3297 111.123 21.7821 110.498 21.0665C109.873 20.3508 109.39 19.4914 109.052 18.4883C108.715 17.4851 108.545 16.3575 108.545 15.1056C108.545 13.8536 108.713 12.7325 109.052 11.7374C109.39 10.7439 109.871 9.8942 110.498 9.18988C111.123 8.48555 111.879 7.94277 112.763 7.56638C113.647 7.18998 114.645 7.00098 115.758 7.00098C116.871 7.00098 117.874 7.18998 118.768 7.56638C119.661 7.94438 120.422 8.48555 121.047 9.18988C121.672 9.89582 122.154 10.7439 122.493 11.7374C122.83 12.7309 123 13.8536 123 15.1056C123 16.3575 122.83 17.4851 122.493 18.4883C122.155 19.4914 121.674 20.3508 121.047 21.0665C120.422 21.7821 119.661 22.3281 118.768 22.7061C117.874 23.0825 116.869 23.2715 115.758 23.2715ZM115.758 20.2022C116.771 20.2022 117.566 19.8937 118.142 19.2782C118.719 18.6627 119.007 17.7581 119.007 16.5659V13.6759C119.007 12.5047 118.719 11.6098 118.142 10.9943C117.566 10.3788 116.771 10.0703 115.758 10.0703C114.745 10.0703 113.979 10.3788 113.404 10.9943C112.828 11.6098 112.54 12.5047 112.54 13.6759V16.5659C112.54 17.7581 112.828 18.6627 113.404 19.2782C113.981 19.8937 114.765 20.2022 115.758 20.2022Z" fill="black"/>
<path d="M36.969 48.8841V28.0839H40.9026V45.398H49.0976V48.8841H36.969Z" fill="black"/>
<path d="M58.1262 49.2411C57.0132 49.2411 56.0148 49.0521 55.1312 48.6757C54.2476 48.2993 53.4915 47.7517 52.8664 47.036C52.2412 46.3204 51.7582 45.461 51.4206 44.4578C51.0829 43.4547 50.9133 42.3271 50.9133 41.0751C50.9133 39.8232 51.0813 38.7021 51.4206 37.707C51.7582 36.7135 52.2396 35.8638 52.8664 35.1595C53.4915 34.4551 54.2476 33.9123 55.1312 33.5359C56.0148 33.1596 57.0132 32.9706 58.1262 32.9706C59.2392 32.9706 60.2424 33.1596 61.1357 33.5359C62.0291 33.914 62.7899 34.4551 63.4151 35.1595C64.0403 35.8654 64.5217 36.7135 64.8609 37.707C65.1985 38.7005 65.3681 39.8232 65.3681 41.0751C65.3681 42.3271 65.1985 43.4547 64.8609 44.4578C64.5233 45.461 64.0419 46.3204 63.4151 47.036C62.7899 47.7517 62.0291 48.2977 61.1357 48.6757C60.2424 49.0521 59.2376 49.2411 58.1262 49.2411ZM58.1262 46.1718C59.1391 46.1718 59.9339 45.8633 60.5106 45.2478C61.0873 44.6323 61.3748 43.7277 61.3748 42.5355V39.6455C61.3748 38.4743 61.0873 37.5794 60.5106 36.9639C59.9339 36.3484 59.1391 36.0399 58.1262 36.0399C57.1133 36.0399 56.3476 36.3484 55.7725 36.9639C55.1958 37.5794 54.9083 38.4743 54.9083 39.6455V42.5355C54.9083 43.7277 55.1958 44.6323 55.7725 45.2478C56.3492 45.8633 57.1327 46.1718 58.1262 46.1718Z" fill="black"/>
<path d="M78.0331 46.2913H77.8844C77.7455 46.6887 77.5614 47.0619 77.3336 47.4092C77.1042 47.7565 76.8166 48.0699 76.4693 48.3478C76.122 48.6256 75.7036 48.8453 75.2174 49.0036C74.7311 49.1619 74.169 49.2427 73.5341 49.2427C71.9251 49.2427 70.6926 48.7161 69.8396 47.6628C68.9851 46.6096 68.5586 45.1104 68.5586 43.1622V33.3275H72.3726V42.7745C72.3726 43.8472 72.581 44.6662 72.9978 45.2332C73.4146 45.8002 74.0801 46.0829 74.9944 46.0829C75.3708 46.0829 75.744 46.0345 76.1123 45.9343C76.479 45.8358 76.8021 45.6807 77.0816 45.4723C77.3594 45.2639 77.5888 45.0054 77.7665 44.6969C77.9458 44.3884 78.0347 44.0265 78.0347 43.6097V33.3292H81.8487V48.8841H78.0347V46.2913H78.0331Z" fill="black"/>
<path d="M88.1635 31.0627C87.3687 31.0627 86.7968 30.8834 86.4495 30.5264C86.1022 30.1694 85.9277 29.7122 85.9277 29.1549V28.5588C85.9277 28.0031 86.1022 27.5459 86.4495 27.1873C86.7968 26.8303 87.3687 26.651 88.1635 26.651C88.9583 26.651 89.5043 26.8303 89.8613 27.1873C90.2183 27.5443 90.3976 28.0015 90.3976 28.5588V29.1549C90.3976 29.7106 90.2183 30.1678 89.8613 30.5264C89.5043 30.885 88.9373 31.0627 88.1635 31.0627ZM86.2573 33.3275H90.0713V48.8825H86.2573V33.3275Z" fill="black"/>
<path d="M99.5765 49.2411C98.087 49.2411 96.8351 48.9874 95.8222 48.4818C94.8094 47.9746 93.9144 47.2751 93.1406 46.3802L95.4652 44.1153C96.0419 44.7712 96.6719 45.2881 97.3569 45.6645C98.0418 46.0425 98.8318 46.2299 99.7267 46.2299C100.622 46.2299 101.302 46.0716 101.709 45.7534C102.116 45.4367 102.319 44.999 102.319 44.4416C102.319 43.9845 102.176 43.6226 101.887 43.3545C101.599 43.0863 101.106 42.9021 100.412 42.8036L98.8625 42.5952C97.1743 42.3771 95.8868 41.8957 95.0032 41.1494C94.1196 40.4047 93.6769 39.3175 93.6769 37.8863C93.6769 37.1319 93.8159 36.4518 94.0937 35.8444C94.3716 35.2386 94.769 34.7216 95.2859 34.2952C95.8028 33.8687 96.4232 33.5408 97.1485 33.3114C97.8738 33.0836 98.6831 32.9689 99.5765 32.9689C100.331 32.9689 101.001 33.0238 101.588 33.1321C102.174 33.2419 102.706 33.4002 103.182 33.6086C103.659 33.817 104.095 34.0755 104.494 34.384C104.891 34.6926 105.279 35.035 105.655 35.4114L103.421 37.6456C102.964 37.169 102.418 36.7716 101.782 36.4534C101.145 36.1351 100.45 35.9768 99.696 35.9768C98.8608 35.9768 98.2599 36.1254 97.8932 36.4243C97.5249 36.7215 97.3423 37.1092 97.3423 37.5858C97.3423 38.1027 97.4958 38.4953 97.8044 38.7634C98.1113 39.0316 98.6331 39.2254 99.3681 39.345L100.948 39.5534C104.305 40.0299 105.985 41.5597 105.985 44.1428C105.985 44.8972 105.831 45.5886 105.523 46.2138C105.214 46.8389 104.783 47.3753 104.227 47.8227C103.672 48.2702 103.001 48.6175 102.216 48.8663C101.431 49.1151 100.552 49.2395 99.5781 49.2395L99.5765 49.2411Z" fill="black"/>
<path d="M109.59 32.6329V35.5358H109.199V32.6329H108.167V32.2888H110.622V32.6329H109.59Z" fill="black"/>
<path d="M113.687 32.8009H113.665L113.39 33.3453L112.613 34.7588L111.836 33.3453L111.561 32.8009H111.539V35.5358H111.157V32.2888H111.678L112.608 34.0383H112.631L113.566 32.2888H114.068V35.5358H113.687V32.8009Z" fill="black"/>
<path d="M0 15.0458C5.84945 15.0458 10.5972 19.7951 10.5972 25.643V50.3186H0V15.0458Z" fill="#2E75FF"/>
<path d="M27.0164 39.7214C27.0164 45.5708 22.267 50.3186 16.4192 50.3186H12.5664V39.7214H27.0164Z" fill="#2E75FF"/>
<path d="M27.0164 37.0786C21.1669 37.0786 16.4192 32.3292 16.4192 26.4814L16.4192 1.80577H27.0164L27.0164 37.0786Z" fill="#2E75FF"/>
<path d="M0 12.4013C0 6.55189 4.74935 1.80416 10.5972 1.80416H14.45V12.4013H0Z" fill="#2E75FF"/>
</svg>
